<mxfile host="Electron" agent="Mozilla/5.0 (Macintosh; Intel Mac OS X 10_15_7) AppleWebKit/537.36 (KHTML, like Gecko) draw.io/26.0.4 Chrome/128.0.6613.186 Electron/32.2.5 Safari/537.36" version="26.0.4">
  <diagram id="C5RBs43oDa-KdzZeNtuy" name="Page-1">
    <mxGraphModel dx="827" dy="1883" grid="1" gridSize="10" guides="1" tooltips="1" connect="1" arrows="1" fold="1" page="1" pageScale="1" pageWidth="827" pageHeight="1169" math="0" shadow="0">
      <root>
        <mxCell id="WIyWlLk6GJQsqaUBKTNV-0" />
        <mxCell id="WIyWlLk6GJQsqaUBKTNV-1" parent="WIyWlLk6GJQsqaUBKTNV-0" />
        <mxCell id="gcREqyrDTUjW2py5-vzY-2" value="" style="edgeStyle=orthogonalEdgeStyle;rounded=0;orthogonalLoop=1;jettySize=auto;html=1;" edge="1" parent="WIyWlLk6GJQsqaUBKTNV-1" source="WIyWlLk6GJQsqaUBKTNV-3" target="gcREqyrDTUjW2py5-vzY-1">
          <mxGeometry relative="1" as="geometry" />
        </mxCell>
        <mxCell id="WIyWlLk6GJQsqaUBKTNV-3" value="Initialize ants on nodes and pheromone on ant trails" style="rounded=1;whiteSpace=wrap;html=1;fontSize=12;glass=0;strokeWidth=1;shadow=0;" parent="WIyWlLk6GJQsqaUBKTNV-1" vertex="1">
          <mxGeometry x="160" y="60" width="120" height="60" as="geometry" />
        </mxCell>
        <mxCell id="gcREqyrDTUjW2py5-vzY-5" value="" style="edgeStyle=orthogonalEdgeStyle;rounded=0;orthogonalLoop=1;jettySize=auto;html=1;" edge="1" parent="WIyWlLk6GJQsqaUBKTNV-1" source="gcREqyrDTUjW2py5-vzY-0" target="WIyWlLk6GJQsqaUBKTNV-3">
          <mxGeometry relative="1" as="geometry" />
        </mxCell>
        <mxCell id="gcREqyrDTUjW2py5-vzY-0" value="Start" style="ellipse;whiteSpace=wrap;html=1;" vertex="1" parent="WIyWlLk6GJQsqaUBKTNV-1">
          <mxGeometry x="175" y="-70" width="90" height="50" as="geometry" />
        </mxCell>
        <mxCell id="gcREqyrDTUjW2py5-vzY-7" value="" style="edgeStyle=orthogonalEdgeStyle;rounded=0;orthogonalLoop=1;jettySize=auto;html=1;" edge="1" parent="WIyWlLk6GJQsqaUBKTNV-1" source="gcREqyrDTUjW2py5-vzY-1" target="gcREqyrDTUjW2py5-vzY-6">
          <mxGeometry relative="1" as="geometry" />
        </mxCell>
        <mxCell id="gcREqyrDTUjW2py5-vzY-1" value="Select next node from neighbour nodes based on probability (derived from pheromone &amp;amp; obj. func. value)" style="rounded=1;whiteSpace=wrap;html=1;" vertex="1" parent="WIyWlLk6GJQsqaUBKTNV-1">
          <mxGeometry x="130" y="210" width="180" height="60" as="geometry" />
        </mxCell>
        <mxCell id="gcREqyrDTUjW2py5-vzY-3" value="" style="shape=curlyBracket;whiteSpace=wrap;html=1;rounded=1;flipH=1;labelPosition=right;verticalLabelPosition=middle;align=left;verticalAlign=middle;" vertex="1" parent="WIyWlLk6GJQsqaUBKTNV-1">
          <mxGeometry x="270" y="130" width="20" height="70" as="geometry" />
        </mxCell>
        <mxCell id="gcREqyrDTUjW2py5-vzY-4" value="For each of the n ants" style="text;html=1;align=center;verticalAlign=middle;whiteSpace=wrap;rounded=0;" vertex="1" parent="WIyWlLk6GJQsqaUBKTNV-1">
          <mxGeometry x="294" y="150" width="120" height="30" as="geometry" />
        </mxCell>
        <mxCell id="gcREqyrDTUjW2py5-vzY-8" style="edgeStyle=orthogonalEdgeStyle;rounded=0;orthogonalLoop=1;jettySize=auto;html=1;entryX=0;entryY=0.5;entryDx=0;entryDy=0;exitX=0;exitY=0.5;exitDx=0;exitDy=0;" edge="1" parent="WIyWlLk6GJQsqaUBKTNV-1" source="gcREqyrDTUjW2py5-vzY-6" target="gcREqyrDTUjW2py5-vzY-1">
          <mxGeometry relative="1" as="geometry">
            <Array as="points">
              <mxPoint x="110" y="395" />
              <mxPoint x="110" y="240" />
            </Array>
          </mxGeometry>
        </mxCell>
        <mxCell id="gcREqyrDTUjW2py5-vzY-10" value="No" style="edgeLabel;html=1;align=center;verticalAlign=middle;resizable=0;points=[];" vertex="1" connectable="0" parent="gcREqyrDTUjW2py5-vzY-8">
          <mxGeometry x="-0.7434" y="-2" relative="1" as="geometry">
            <mxPoint as="offset" />
          </mxGeometry>
        </mxCell>
        <mxCell id="gcREqyrDTUjW2py5-vzY-12" style="edgeStyle=orthogonalEdgeStyle;rounded=0;orthogonalLoop=1;jettySize=auto;html=1;entryX=0;entryY=0.5;entryDx=0;entryDy=0;" edge="1" parent="WIyWlLk6GJQsqaUBKTNV-1" source="gcREqyrDTUjW2py5-vzY-6" target="gcREqyrDTUjW2py5-vzY-11">
          <mxGeometry relative="1" as="geometry" />
        </mxCell>
        <mxCell id="gcREqyrDTUjW2py5-vzY-13" value="Yes" style="edgeLabel;html=1;align=center;verticalAlign=middle;resizable=0;points=[];" vertex="1" connectable="0" parent="gcREqyrDTUjW2py5-vzY-12">
          <mxGeometry x="-0.2667" y="1" relative="1" as="geometry">
            <mxPoint as="offset" />
          </mxGeometry>
        </mxCell>
        <mxCell id="gcREqyrDTUjW2py5-vzY-6" value="Is&lt;div&gt;this the&lt;/div&gt;&lt;div&gt;destination?&lt;/div&gt;&lt;div&gt;(base&amp;nbsp;&lt;/div&gt;&lt;div&gt;station)&lt;/div&gt;" style="rhombus;whiteSpace=wrap;html=1;" vertex="1" parent="WIyWlLk6GJQsqaUBKTNV-1">
          <mxGeometry x="170" y="330" width="100" height="130" as="geometry" />
        </mxCell>
        <mxCell id="gcREqyrDTUjW2py5-vzY-15" value="" style="edgeStyle=orthogonalEdgeStyle;rounded=0;orthogonalLoop=1;jettySize=auto;html=1;" edge="1" parent="WIyWlLk6GJQsqaUBKTNV-1" source="gcREqyrDTUjW2py5-vzY-11" target="gcREqyrDTUjW2py5-vzY-14">
          <mxGeometry relative="1" as="geometry" />
        </mxCell>
        <mxCell id="gcREqyrDTUjW2py5-vzY-11" value="Remove path loops" style="rounded=1;whiteSpace=wrap;html=1;" vertex="1" parent="WIyWlLk6GJQsqaUBKTNV-1">
          <mxGeometry x="400" y="370" width="90" height="50" as="geometry" />
        </mxCell>
        <mxCell id="gcREqyrDTUjW2py5-vzY-17" value="" style="edgeStyle=orthogonalEdgeStyle;rounded=0;orthogonalLoop=1;jettySize=auto;html=1;" edge="1" parent="WIyWlLk6GJQsqaUBKTNV-1" source="gcREqyrDTUjW2py5-vzY-14" target="gcREqyrDTUjW2py5-vzY-16">
          <mxGeometry relative="1" as="geometry" />
        </mxCell>
        <mxCell id="gcREqyrDTUjW2py5-vzY-14" value="Calculate end-to-end path obj. funct value" style="rounded=1;whiteSpace=wrap;html=1;" vertex="1" parent="WIyWlLk6GJQsqaUBKTNV-1">
          <mxGeometry x="385" y="490" width="120" height="60" as="geometry" />
        </mxCell>
        <mxCell id="gcREqyrDTUjW2py5-vzY-21" value="" style="edgeStyle=orthogonalEdgeStyle;rounded=0;orthogonalLoop=1;jettySize=auto;html=1;" edge="1" parent="WIyWlLk6GJQsqaUBKTNV-1" source="gcREqyrDTUjW2py5-vzY-16" target="gcREqyrDTUjW2py5-vzY-18">
          <mxGeometry relative="1" as="geometry" />
        </mxCell>
        <mxCell id="gcREqyrDTUjW2py5-vzY-16" value="Implement negative feedback (pheromone evaporation from trails)" style="rounded=1;whiteSpace=wrap;html=1;" vertex="1" parent="WIyWlLk6GJQsqaUBKTNV-1">
          <mxGeometry x="385" y="610" width="120" height="60" as="geometry" />
        </mxCell>
        <mxCell id="gcREqyrDTUjW2py5-vzY-22" value="" style="edgeStyle=orthogonalEdgeStyle;rounded=0;orthogonalLoop=1;jettySize=auto;html=1;" edge="1" parent="WIyWlLk6GJQsqaUBKTNV-1" source="gcREqyrDTUjW2py5-vzY-18" target="gcREqyrDTUjW2py5-vzY-19">
          <mxGeometry relative="1" as="geometry" />
        </mxCell>
        <mxCell id="gcREqyrDTUjW2py5-vzY-18" value="Implement positive feedback (pheromone increase for paths that have been used)" style="rounded=1;whiteSpace=wrap;html=1;" vertex="1" parent="WIyWlLk6GJQsqaUBKTNV-1">
          <mxGeometry x="385" y="740" width="120" height="60" as="geometry" />
        </mxCell>
        <mxCell id="gcREqyrDTUjW2py5-vzY-23" value="" style="edgeStyle=orthogonalEdgeStyle;rounded=0;orthogonalLoop=1;jettySize=auto;html=1;" edge="1" parent="WIyWlLk6GJQsqaUBKTNV-1" source="gcREqyrDTUjW2py5-vzY-19" target="gcREqyrDTUjW2py5-vzY-20">
          <mxGeometry relative="1" as="geometry" />
        </mxCell>
        <mxCell id="gcREqyrDTUjW2py5-vzY-19" value="Return the solutions (followed paths and the best among them)" style="rounded=1;whiteSpace=wrap;html=1;" vertex="1" parent="WIyWlLk6GJQsqaUBKTNV-1">
          <mxGeometry x="385" y="880" width="120" height="60" as="geometry" />
        </mxCell>
        <mxCell id="gcREqyrDTUjW2py5-vzY-20" value="Stop" style="ellipse;whiteSpace=wrap;html=1;" vertex="1" parent="WIyWlLk6GJQsqaUBKTNV-1">
          <mxGeometry x="410" y="1030" width="70" height="40" as="geometry" />
        </mxCell>
      </root>
    </mxGraphModel>
  </diagram>
</mxfile>
